<svg width="100" height="10" viewBox="0 0 100 10" fill="none" xmlns="http://www.w3.org/2000/svg">
<path d="M7.49475 10C10.8067 10 12.1344 8.89896 12.5483 8.48446C12.7482 8.8342 12.9766 9.50777 13.048 9.81865H15.6034V4.39119H7.73743V6.26943H11.4634C11.4634 6.58031 10.5783 7.47409 7.83736 7.47409C5.21063 7.47409 4.19706 6.26943 4.19706 5.03886V4.89637C4.19706 3.62694 5.01077 2.51295 7.86592 2.51295C10.8638 2.51295 11.235 3.48446 11.3064 3.73057H15.532V3.71762C15.4749 2.37047 14.5898 0 8.08005 0H7.5233C1.25626 0 0 2.70725 0 4.77979V5.14249C0 7.17617 1.35619 10 7.16641 10H7.49475Z" fill="white"/>
<path d="M21.7445 2.52591H26.3984C27.312 2.52591 27.6261 2.8886 27.6261 3.34197V3.35492C27.6261 3.82124 27.2977 4.18394 26.3984 4.18394H21.7445V2.52591ZM21.7445 6.51554H25.6275C27.2263 6.51554 27.7831 7.08549 27.7831 8.18653V9.31347C27.7831 9.58549 27.8116 9.71503 27.9116 9.81865H32.0515V9.75389C31.9516 9.58549 31.8517 9.33938 31.8517 8.6658V7.24093C31.8517 5.99741 30.9809 5.22021 29.6675 4.94819C30.4669 4.77979 31.8088 4.19689 31.8088 2.79793V2.65544C31.8088 1.08808 30.4384 0.181347 27.3405 0.181347H17.6902V9.81865H21.7445V6.51554Z" fill="white"/>
<path d="M42.6738 5.85492H39.1477L40.8893 2.53886L42.6738 5.85492ZM44.8009 9.81865H49.2406L43.6874 0.181347H38.234L32.9806 9.81865H37.092L37.9057 8.26425H43.9729L44.8009 9.81865Z" fill="white"/>
<path d="M58.1647 9.81865L63.1469 0.181347H58.9356L55.5808 6.90415L52.0119 0.181347H47.4151L52.7828 9.81865H58.1647Z" fill="white"/>
<path d="M68.4742 0.181347H64.4342V9.81865H68.4742V0.181347Z" fill="white"/>
<path d="M74.8827 9.81865H78.937V2.81088H83.5195V0.181347H70.3002V2.81088H74.8827V9.81865Z" fill="white"/>
<path d="M90.264 9.81865H94.3183V6.21762L100 0.181347H95.5603L92.4053 3.51036L89.3075 0.181347H84.4538L90.264 6.19171V9.81865Z" fill="white"/>
</svg>
