<svg width="23" height="23" viewBox="0 0 23 23" fill="none" xmlns="http://www.w3.org/2000/svg">
<path d="M19.4705 4.40921C18.0045 3.75695 16.4325 3.27639 14.7889 3.00115C14.759 2.99584 14.7291 3.00912 14.7137 3.03567C14.5115 3.38436 14.2875 3.83925 14.1307 4.19679C12.3629 3.94015 10.6041 3.94015 8.87256 4.19679C8.7157 3.8313 8.48363 3.38436 8.28055 3.03567C8.26513 3.01 8.23523 2.99673 8.2053 3.00115C6.56258 3.27551 4.99058 3.75607 3.52373 4.40921C3.51103 4.41452 3.50015 4.42337 3.49292 4.43487C0.511167 8.75461 -0.305661 12.9682 0.0950476 17.1295C0.0968607 17.1498 0.108646 17.1693 0.124965 17.1817C2.09224 18.5827 3.99789 19.4332 5.86814 19.9969C5.89807 20.0058 5.92979 19.9951 5.94884 19.9712C6.39125 19.3854 6.78562 18.7676 7.12375 18.118C7.1437 18.08 7.12466 18.0348 7.08387 18.0198C6.45834 17.7897 5.8627 17.5091 5.28974 17.1906C5.24442 17.1649 5.24079 17.102 5.28248 17.0719C5.40306 16.9843 5.52366 16.8932 5.63879 16.8011C5.65962 16.7843 5.68865 16.7808 5.71314 16.7914C9.47723 18.4579 13.5523 18.4579 17.272 16.7914C17.2965 16.7799 17.3255 16.7834 17.3472 16.8002C17.4624 16.8923 17.583 16.9843 17.7045 17.0719C17.7462 17.102 17.7434 17.1649 17.6981 17.1906C17.1252 17.5153 16.5295 17.7897 15.9031 18.0189C15.8623 18.034 15.8442 18.08 15.8641 18.118C16.2095 18.7667 16.6039 19.3845 17.0381 19.9704C17.0563 19.9951 17.0889 20.0058 17.1188 19.9969C18.9981 19.4332 20.9038 18.5827 22.871 17.1817C22.8883 17.1693 22.8992 17.1507 22.901 17.1304C23.3805 12.3194 22.0977 8.14042 19.5004 4.43575C19.494 4.42337 19.4832 4.41452 19.4705 4.40921ZM7.68586 14.5957C6.5526 14.5957 5.61884 13.5868 5.61884 12.3478C5.61884 11.1087 6.53449 10.0998 7.68586 10.0998C8.84625 10.0998 9.77098 11.1176 9.75284 12.3478C9.75284 13.5868 8.83718 14.5957 7.68586 14.5957ZM15.3283 14.5957C14.1951 14.5957 13.2613 13.5868 13.2613 12.3478C13.2613 11.1087 14.1769 10.0998 15.3283 10.0998C16.4887 10.0998 17.4134 11.1176 17.3953 12.3478C17.3953 13.5868 16.4887 14.5957 15.3283 14.5957Z" fill="white"/>
</svg>
