<svg width="1169" height="48" viewBox="0 0 1169 48" fill="none" xmlns="http://www.w3.org/2000/svg">
<path fill-rule="evenodd" clip-rule="evenodd" d="M592.32 46.3125C590.655 46.3125 588.989 46.3106 587.323 46.3067L587.321 47.3067C588.988 47.3106 590.654 47.3125 592.32 47.3125V46.3125ZM602.33 46.2887C600.662 46.2966 598.993 46.3025 597.325 46.3065L597.327 47.3065C598.996 47.3025 600.666 47.2966 602.335 47.2887L602.33 46.2887ZM582.323 46.2891C580.655 46.2813 578.986 46.2716 577.317 46.2598L577.31 47.2598C578.98 47.2715 580.649 47.2813 582.318 47.2891L582.323 46.2891ZM612.343 46.2176C610.673 46.2334 609.004 46.2472 607.336 46.2591L607.343 47.259C609.012 47.2472 610.682 47.2333 612.352 47.2176L612.343 46.2176ZM572.305 46.2187C570.633 46.2031 568.96 46.1855 567.286 46.1659L567.274 47.1658C568.949 47.1854 570.623 47.203 572.296 47.2187L572.305 46.2187ZM622.357 46.0993C620.688 46.123 619.02 46.1446 617.352 46.1643L617.364 47.1642C619.032 47.1445 620.701 47.1229 622.371 47.0992L622.357 46.0993ZM562.292 46.1018C560.631 46.0785 558.969 46.0534 557.305 46.0263L557.289 47.0262C558.954 47.0533 560.617 47.0784 562.278 47.1017L562.292 46.1018ZM632.346 45.9347C630.679 45.9661 629.013 45.9955 627.348 46.0229L627.365 47.0228C629.031 46.9953 630.697 46.9659 632.365 46.9346L632.346 45.9347ZM552.307 45.9393C550.639 45.9084 548.969 45.8756 547.297 45.8408L547.276 46.8406C548.949 46.8754 550.62 46.9082 552.288 46.9392L552.307 45.9393ZM642.367 45.7233C640.694 45.7625 639.022 45.7997 637.352 45.8349L637.373 46.8347C639.044 46.7994 640.717 46.7622 642.391 46.7231L642.367 45.7233ZM542.273 45.7308C540.599 45.6923 538.923 45.6519 537.245 45.6095L537.219 46.6092C538.899 46.6516 540.576 46.692 542.25 46.7306L542.273 45.7308ZM652.375 45.4667C650.712 45.5131 649.051 45.5575 647.392 45.6001L647.418 46.5998C649.078 46.5572 650.739 46.5127 652.403 46.4663L652.375 45.4667ZM532.279 45.4789C530.621 45.4335 528.96 45.3863 527.297 45.3372L527.267 46.3368C528.932 46.3859 530.593 46.4331 532.252 46.4786L532.279 45.4789ZM662.355 45.1662C660.687 45.2201 659.021 45.2721 657.358 45.3221L657.388 46.3217C659.052 46.2716 660.718 46.2196 662.387 46.1657L662.355 45.1662ZM522.297 45.1843C520.627 45.1315 518.954 45.0769 517.278 45.0204L517.244 46.0198C518.921 46.0763 520.595 46.131 522.265 46.1838L522.297 45.1843ZM672.394 44.8202C670.715 44.8817 669.039 44.9412 667.366 44.9989L667.401 45.9983C669.075 45.9406 670.751 45.881 672.43 45.8195L672.394 44.8202ZM512.239 44.8453C510.575 44.7858 508.907 44.7244 507.236 44.6613L507.198 45.6605C508.87 45.7237 510.538 45.7851 512.203 45.8447L512.239 44.8453ZM682.375 44.4338C680.719 44.5013 679.065 44.5671 677.415 44.631L677.454 45.6302C679.105 45.5663 680.759 45.5005 682.416 45.4329L682.375 44.4338ZM502.279 44.469C500.622 44.4032 498.963 44.3356 497.299 44.2662L497.257 45.2654C498.922 45.3348 500.582 45.4024 502.239 45.4682L502.279 44.469ZM692.353 44.0064C690.683 44.0813 689.017 44.1543 687.354 44.2256L687.397 45.2247C689.06 45.1534 690.727 45.0803 692.398 45.0054L692.353 44.0064ZM492.295 44.0529C490.624 43.98 488.948 43.9053 487.267 43.8289L487.222 44.8279C488.903 44.9043 490.579 44.979 492.252 45.0519L492.295 44.0529ZM702.416 43.5354C700.731 43.6175 699.05 43.6979 697.373 43.7764L697.42 44.7753C699.098 44.6967 700.779 44.6164 702.464 44.5342L702.416 43.5354ZM482.214 43.5944C480.559 43.5161 478.901 43.4361 477.238 43.3544L477.189 44.3532C478.852 44.4349 480.512 44.5149 482.166 44.5932L482.214 43.5944ZM712.361 43.0316C710.706 43.1185 709.056 43.2037 707.409 43.2871L707.46 44.2858C709.107 44.2023 710.758 44.1172 712.413 44.0302L712.361 43.0316ZM472.289 43.107C470.635 43.0229 468.976 42.9371 467.312 42.8496L467.26 43.8483C468.924 43.9357 470.583 44.0215 472.238 44.1057L472.289 43.107ZM722.338 42.4896C720.667 42.5834 719 42.6754 717.337 42.7658L717.391 43.7643C719.055 43.6739 720.722 43.5818 722.394 43.488L722.338 42.4896ZM462.308 42.5824C460.635 42.4916 458.957 42.3992 457.275 42.3052L457.219 43.3036C458.902 43.3977 460.58 43.4901 462.254 43.5809L462.308 42.5824ZM732.421 41.9061C730.731 42.0068 729.046 42.1058 727.366 42.203L727.424 43.2014C729.105 43.1041 730.79 43.0051 732.481 42.9044L732.421 41.9061ZM452.211 42.018C450.56 41.9231 448.905 41.8266 447.244 41.7285L447.185 42.7268C448.846 42.8249 450.502 42.9214 452.154 43.0164L452.211 42.018ZM742.335 41.2991C740.682 41.4029 739.035 41.5051 737.393 41.6057L737.454 42.6039C739.097 42.5032 740.745 42.401 742.397 42.2971L742.335 41.2991ZM442.307 41.4332C440.656 41.3332 439 41.2317 437.339 41.1287L437.277 42.1267C438.939 42.2298 440.595 42.3314 442.246 42.4314L442.307 41.4332ZM752.305 40.6567C750.633 40.7669 748.967 40.8756 747.305 40.9827L747.369 41.9806C749.031 41.8735 750.699 41.7648 752.371 41.6545L752.305 40.6567ZM432.34 40.8149C430.668 40.7088 428.991 40.6011 427.308 40.492L427.243 41.4899C428.926 41.5991 430.604 41.7068 432.276 41.8129L432.34 40.8149ZM762.397 39.9755C760.704 40.0923 759.017 40.2074 757.335 40.3209L757.403 41.3186C759.085 41.2051 760.773 41.0899 762.466 40.9731L762.397 39.9755ZM422.243 40.1598C420.582 40.0497 418.916 39.9382 417.244 39.8252L417.177 40.8229C418.849 40.9359 420.516 41.0475 422.177 41.1576L422.243 40.1598ZM772.301 39.2784C770.653 39.3967 769.011 39.5134 767.373 39.6287L767.444 40.6262C769.081 40.5109 770.724 40.3941 772.372 40.2758L772.301 39.2784ZM412.326 39.4896C410.681 39.3763 409.03 39.2616 407.374 39.1455L407.304 40.1431C408.961 40.2592 410.612 40.3739 412.257 40.4872L412.326 39.4896ZM782.251 38.551C780.582 38.6752 778.918 38.798 777.26 38.9192L777.332 39.9165C778.991 39.7953 780.655 39.6725 782.325 39.5483L782.251 38.551ZM402.389 38.793C400.722 38.6741 399.049 38.5537 397.37 38.432L397.297 39.4294C398.977 39.5511 400.65 39.6715 402.318 39.7904L402.389 38.793ZM792.334 37.7878C790.642 37.918 788.956 38.0467 787.275 38.1739L787.351 39.1711C789.032 39.0438 790.718 38.9151 792.41 38.7849L792.334 37.7878ZM392.315 38.0626C390.624 37.938 388.927 37.812 387.224 37.6847L387.15 38.6819C388.853 38.8093 390.55 38.9353 392.242 39.0599L392.315 38.0626ZM802.269 37.0116C800.629 37.1417 798.994 37.2704 797.364 37.3977L797.442 38.3947C799.072 38.2673 800.707 38.1386 802.348 38.0085L802.269 37.0116ZM382.331 37.3161C380.695 37.192 379.053 37.0666 377.406 36.94L377.329 37.937C378.977 38.0637 380.619 38.1891 382.255 38.3132L382.331 37.3161ZM812.18 36.2148C810.517 36.3503 808.859 36.4845 807.208 36.6173L807.288 37.6141C808.94 37.4812 810.598 37.347 812.261 37.2115L812.18 36.2148ZM372.447 36.5562C370.788 36.427 369.123 36.2965 367.452 36.1647L367.373 37.1616C369.044 37.2934 370.71 37.424 372.369 37.5532L372.447 36.5562ZM822.231 35.3852C820.544 35.5262 818.863 35.6658 817.188 35.8041L817.27 36.8007C818.945 36.6624 820.627 36.5227 822.314 36.3817L822.231 35.3852ZM362.42 35.7656C360.737 35.6312 359.048 35.4956 357.352 35.3587L357.272 36.3555C358.968 36.4924 360.657 36.628 362.341 36.7624L362.42 35.7656ZM832.26 34.5371C830.604 34.6787 828.954 34.8191 827.31 34.9581L827.394 35.9546C829.039 35.8155 830.689 35.6751 832.345 35.5335L832.26 34.5371ZM352.296 34.9482C350.673 34.8157 349.044 34.682 347.409 34.5472L347.327 35.5438C348.962 35.6786 350.591 35.8123 352.215 35.9449L352.296 34.9482ZM342.487 34.1392C340.841 34.0021 339.188 33.8638 337.53 33.7243L337.446 34.7208C339.105 34.8603 340.757 34.9986 342.404 35.1358L342.487 34.1392ZM842.109 33.6858C840.456 33.8302 838.809 33.9733 837.167 34.1152L837.253 35.1115C838.895 34.9696 840.543 34.8264 842.196 34.682L842.109 33.6858ZM332.536 33.3024C330.865 33.1607 329.188 33.0177 327.505 32.8736L327.42 33.87C329.103 34.0141 330.78 34.1571 332.451 34.2989L332.536 33.3024ZM852.101 32.8048C850.424 32.9541 848.752 33.1022 847.087 33.249L847.175 34.2451C848.841 34.0983 850.512 33.9502 852.19 33.8008L852.101 32.8048ZM322.437 32.4379C320.745 32.2918 319.047 32.1446 317.343 31.9962L317.256 32.9924C318.961 33.1408 320.659 33.2881 322.351 33.4342L322.437 32.4379ZM862.241 31.8939C860.538 32.0482 858.842 32.2013 857.152 32.3531L857.242 33.3491C858.932 33.1972 860.628 33.0442 862.331 32.8899L862.241 31.8939ZM312.47 31.5704C310.84 31.4275 309.205 31.2835 307.563 31.1384L307.475 32.1346C309.117 32.2796 310.753 32.4236 312.383 32.5666L312.47 31.5704ZM872.069 30.9961C870.43 31.147 868.796 31.2968 867.169 31.4455L867.26 32.4414C868.888 32.2927 870.521 32.1428 872.16 31.9919L872.069 30.9961ZM302.62 30.7002C300.966 30.5531 299.307 30.4049 297.641 30.2557L297.552 31.2517C299.218 31.401 300.877 31.5491 302.531 31.6963L302.62 30.7002ZM881.976 30.0772C880.312 30.2326 878.655 30.3869 877.004 30.54L877.097 31.5357C878.748 31.3826 880.405 31.2283 882.069 31.0729L881.976 30.0772ZM292.625 29.805C290.947 29.6538 289.263 29.5014 287.572 29.3481L287.482 30.344C289.173 30.4974 290.857 30.6497 292.535 30.801L292.625 29.805ZM892.029 29.1315C890.341 29.2914 888.659 29.4501 886.984 29.6077L887.077 30.6033C888.753 30.4457 890.435 30.2869 892.123 30.1271L892.029 29.1315ZM282.482 28.8849C280.826 28.7337 279.163 28.5816 277.494 28.4284L277.403 29.4242C279.072 29.5774 280.735 29.7296 282.391 29.8808L282.482 28.8849ZM902.106 28.1711C900.435 28.3314 898.77 28.4905 897.111 28.6486L897.206 29.6441C898.865 29.486 900.53 29.3268 902.201 29.1666L902.106 28.1711ZM272.614 27.9793C270.982 27.8287 269.343 27.6771 267.699 27.5246L267.607 28.5203C269.251 28.6728 270.89 28.8244 272.522 28.9751L272.614 27.9793ZM911.902 27.2265C910.258 27.3859 908.619 27.5443 906.986 27.7018L907.082 28.6972C908.715 28.5397 910.354 28.3812 911.999 28.2218L911.902 27.2265ZM262.749 27.0643C261.093 26.91 259.431 26.7547 257.763 26.5985L257.67 27.5942C259.338 27.7504 261 27.9057 262.656 28.06L262.749 27.0643ZM921.841 26.2578C920.173 26.4212 918.51 26.5837 916.854 26.7451L916.951 27.7404C918.607 27.5789 920.27 27.4165 921.939 27.253L921.841 26.2578ZM252.741 26.1271C251.061 25.9691 249.375 25.8101 247.683 25.6502L247.589 26.6458C249.281 26.8057 250.967 26.9647 252.647 27.1228L252.741 26.1271ZM931.926 25.2651C930.233 25.4325 928.546 25.599 926.865 25.7644L926.963 26.7596C928.644 26.5942 930.331 26.4277 932.024 26.2602L931.926 25.2651ZM242.588 25.1677C240.932 25.0106 239.271 24.8526 237.604 24.6938L237.509 25.6893C239.176 25.8481 240.838 26.0061 242.493 26.1632L242.588 25.1677ZM941.946 24.2698C940.3 24.434 938.659 24.5973 937.024 24.7597L937.123 25.7548C938.758 25.5924 940.399 25.4291 942.045 25.2648L941.946 24.2698ZM232.73 24.2286C231.1 24.0727 229.464 23.9159 227.822 23.7584L227.727 24.7538C229.368 24.9114 231.004 25.0681 232.635 25.224L232.73 24.2286ZM951.747 23.2883C950.102 23.4536 948.463 23.6181 946.829 23.7817L946.929 24.7767C948.562 24.6131 950.202 24.4486 951.847 24.2833L951.747 23.2883ZM222.88 23.2832C221.227 23.124 219.568 22.964 217.904 22.8031L217.807 23.7985C219.472 23.9594 221.131 24.1194 222.784 24.2786L222.88 23.2832ZM961.688 22.2854C960.019 22.4543 958.356 22.6223 956.7 22.7895L956.8 23.7844C958.457 23.6173 960.12 23.4492 961.788 23.2803L961.688 22.2854ZM212.892 22.3181C211.216 22.1556 209.533 21.9923 207.845 21.8281L207.749 22.8234C209.437 22.9876 211.119 23.1509 212.796 23.3134L212.892 22.3181ZM971.771 21.261C970.078 21.4335 968.392 21.6052 966.711 21.7759L966.812 22.7708C968.493 22.6 970.18 22.4284 971.872 22.2559L971.771 21.261ZM202.763 21.3332C201.067 21.1677 199.364 21.0015 197.656 20.8344L197.559 21.8297C199.267 21.9967 200.97 22.163 202.666 22.3284L202.763 21.3332ZM981.83 20.2328C980.17 20.403 978.516 20.5723 976.867 20.7409L976.969 21.7357C978.617 21.5672 980.272 21.3978 981.932 21.2276L981.83 20.2328ZM192.803 20.3591C191.18 20.2 189.551 20.0401 187.917 19.8795L187.82 20.8747C189.454 21.0353 191.082 21.1952 192.705 21.3544L192.803 20.3591ZM991.605 19.2279C989.965 19.397 988.33 19.5653 986.701 19.7327L986.803 20.7275C988.432 20.56 990.067 20.3917 991.708 20.2227L991.605 19.2279ZM182.999 19.3955C181.354 19.2334 179.703 19.0706 178.047 18.907L177.949 19.9022C179.605 20.0657 181.256 20.2285 182.901 20.3906L182.999 19.3955ZM1001.52 18.204C999.853 18.3762 998.195 18.5477 996.544 18.7183L996.646 19.713C998.298 19.5424 999.956 19.3709 1001.62 19.1987L1001.52 18.204ZM173.063 18.4142C171.395 18.2492 169.723 18.0835 168.044 17.917L167.945 18.9121C169.624 19.0786 171.297 19.2443 172.964 19.4093L173.063 18.4142ZM1011.56 17.1611C1009.88 17.3365 1008.2 17.5111 1006.52 17.6849L1006.63 18.6796C1008.3 18.5058 1009.98 18.3311 1011.67 18.1557L1011.56 17.1611ZM162.992 17.4154C161.302 17.2475 159.606 17.0788 157.905 16.9094L157.806 17.9045C159.507 18.0739 161.203 18.2426 162.893 18.4105L162.992 17.4154ZM1021.75 16.0991C1020.04 16.2777 1018.34 16.4555 1016.64 16.6325L1016.74 17.6271C1018.44 17.4501 1020.15 17.2723 1021.86 17.0937L1021.75 16.0991ZM152.797 16.4004C151.186 16.2397 149.57 16.0783 147.948 15.9163L147.848 16.9113C149.47 17.0734 151.087 17.2348 152.698 17.3955L152.797 16.4004ZM1031.5 15.0792C1029.87 15.2501 1028.24 15.4203 1026.62 15.5899L1026.73 16.5844C1028.35 16.4149 1029.97 16.2447 1031.61 16.0738L1031.5 15.0792ZM143.067 15.4283C141.435 15.265 139.798 15.101 138.155 14.9364L138.055 15.9314C139.698 16.096 141.335 16.26 142.968 16.4233L143.067 15.4283ZM1041.35 14.0453C1039.7 14.219 1038.05 14.392 1036.41 14.5643L1036.51 15.5589C1038.16 15.3866 1039.8 15.2135 1041.46 15.0398L1041.35 14.0453ZM133.212 14.4406C131.559 14.2747 129.9 14.1081 128.236 13.9409L128.136 14.9359C129.8 15.1031 131.459 15.2697 133.112 15.4356L133.212 14.4406ZM1051.33 12.9945L1046.32 13.522L1046.43 14.5165L1051.44 13.989L1051.33 12.9945ZM123.229 13.4374C121.555 13.2689 119.875 13.0997 118.19 12.9299L118.089 13.9249C119.775 14.0947 121.455 14.2639 123.129 14.4324L123.229 13.4374ZM1061.45 11.9268L1056.37 12.4628L1056.48 13.4572L1061.55 12.9213L1061.45 11.9268ZM113.118 12.4186L108.013 11.9034L107.912 12.8984L113.017 13.4136L113.118 12.4186ZM103.025 11.3995L98.1647 10.908L98.064 11.903L102.924 12.3944L103.025 11.3995ZM1071.48 10.8651L1066.55 11.3867L1066.66 12.3811L1071.58 11.8596L1071.48 10.8651ZM93.2752 10.4131L88.356 9.91481L88.2552 10.9097L93.1745 11.408L93.2752 10.4131ZM1081.24 9.83006L1076.34 10.3495L1076.45 11.3439L1081.35 10.8245L1081.24 9.83006ZM83.4068 9.41305L78.4274 8.90786L78.3265 9.90275L83.3059 10.4079L83.4068 9.41305ZM1091.13 8.78008L1086.17 9.30694L1086.27 10.3013L1091.23 9.77447L1091.13 8.78008ZM73.4177 8.39925L68.3774 7.8872L68.2763 8.88208L73.3167 9.39413L73.4177 8.39925ZM1101.14 7.71516L1096.12 8.24949L1096.22 9.24387L1101.24 8.70955L1101.14 7.71516ZM63.3063 7.37172L58.2042 6.85281L58.103 7.84768L63.2051 8.36659L63.3063 7.37172ZM1111.27 6.63534L1106.19 7.17711L1106.3 8.17149L1111.38 7.62971L1111.27 6.63534ZM53.1693 6.34048L48.3165 5.84646L48.2152 6.84132L53.068 7.33533L53.1693 6.34048ZM1121.26 5.57075L1116.39 6.08983L1116.5 7.08419L1121.36 6.56511L1121.26 5.57075ZM43.4358 5.34941L38.5271 4.84934L38.4257 5.84419L43.3345 6.34426L43.4358 5.34941ZM1131.02 4.52839L1126.13 5.05122L1126.23 6.04557L1131.13 5.52274L1131.02 4.52839ZM33.5901 4.34623L28.6248 3.8401L28.5234 4.83494L33.4888 5.34108L33.5901 4.34623ZM1140.91 3.47285L1135.95 4.00226L1136.06 4.99661L1141.01 4.46719L1140.91 3.47285ZM23.6309 3.33093L18.6083 2.81874L18.5069 3.81358L23.5295 4.32577L23.6309 3.33093ZM1150.91 2.40411L1145.89 2.94012L1146 3.93446L1151.01 3.39845L1150.91 2.40411ZM13.5569 2.30351L8.47634 1.78526L8.37485 2.78009L13.4554 3.29835L13.5569 2.30351ZM1161.03 1.3222L1155.95 1.86481L1156.06 2.85914L1161.13 2.31653L1161.03 1.3222ZM3.3666 1.26397L0.800716 1.00219L0.699219 1.99703L3.2651 2.25881L3.3666 1.26397ZM1168.7 0.502281L1166.13 0.776299L1166.24 1.77063L1168.8 1.49661L1168.7 0.502281Z" fill="url(#paint0_linear_1525_1842)"/>
<defs>
<linearGradient id="paint0_linear_1525_1842" x1="1171.75" y1="13.5004" x2="0.749964" y2="1.0006" gradientUnits="userSpaceOnUse">
<stop stop-color="white" stop-opacity="0"/>
<stop offset="0.503125" stop-color="white"/>
<stop offset="1" stop-color="white" stop-opacity="0"/>
</linearGradient>
</defs>
</svg>
